,
.   http://www.scenetime.com/signup.php  ---&gt;  Hottest scene tracker on the net !!! 
Scenetime lucky draw is started , join now and be the winner . offer is limited 

    Join Now   http://www.scenetime.com/signup.php

    seed back for speed


 



...................................NFO:.................................................[IMG]http://img846.imageshack.us/img846/6062/buckylarsonborntobeasta.jpg[/IMG]


[color=blue][size=4][b]Bucky.Larson.Born.to.Be.a.Star.2011.DVDRip.XVID.AC3.HQ.Hive-CM8[/b][/size][/color]


[b] Thx Hive

CM8 Doing it right the first time :D

Source: DVD-R

Encode:
Another dvd with great quality, looks like a funny movie with nice cast.
added brightness,sharpness,rgb and denoise
got very nice too
enjoy


Video: 720x384 @bitrate 1700 2pass
Audio: English AC3 5.1 @448
Sample: yes included[/b]


[url]http://www.imdb.com/title/tt1411664/[/url]


General
Complete name                  : Bucky.Larson.Born.to.Be.a.Star.2011.DVDRip.XVID.AC3.HQ.Hive-CM8.avi
Format                         : AVI
Format/Info                    : Audio Video Interleave
File size                      : 1.40 GiB
Duration                       : 1h 32mn
Overall bit rate               : 2 155 Kbps
Writing application            : Nandub v1.0rc2
Writing library                : Nandub build 1853/release

Video
ID                             : 0
Format                         : MPEG-4 Visual
Format profile                 : Advanced Simple@L5
Format settings, BVOP          : 2
Format settings, QPel          : Yes
Format settings, GMC           : No warppoints
Format settings, Matrix        : Default (H.263)
Muxing mode                    : Packed bitstream
Codec ID                       : XVID
Codec ID/Hint                  : XviD
Duration                       : 1h 32mn
Bit rate                       : 1 698 Kbps
Width                          : 720 pixels
Height                         : 384 pixels
Display aspect ratio           : 1.875
Frame rate                     : 25.000 fps
Color space                    : YUV
Chroma subsampling             : 4:2:0
Bit depth                      : 8 bits
Scan type                      : Progressive
Compression mode               : Lossy
Bits/(Pixel*Frame)             : 0.246
Stream size                    : 1.10 GiB (79%)
Writing library                : XviD 1.2.1 (UTC 2008-12-04)

Audio
ID                             : 1
Format                         : AC-3
Format/Info                    : Audio Coding 3
Mode extension                 : CM (complete main)
Codec ID                       : 2000
Duration                       : 1h 32mn
Bit rate mode                  : Constant
Bit rate                       : 448 Kbps
Channel(s)                     : 6 channels
Channel positions              : Front: L C R, Side: L R, LFE
Sampling rate                  : 48.0 KHz
Bit depth                      : 16 bits
Compression mode               : Lossy
Stream size                    : 298 MiB (21%)
Alignment                      : Split accross interleaves
Interleave, duration           : 40 ms (1.00 video frame)
Interleave, preload duration   : 500 ms



A kid from the Midwest moves out to Hollywood in order to follow in his parents footsteps -- and become a porn star. 


Nick Swardson	... 	Bucky Larson
Christina Ricci	... 	Kathy McGee
Don Johnson	... 	Miles Deep
Stephen Dorff	... 	Dick Shadow

[img]http://img818.imageshack.us/img818/4774/bubububububu.png[/img]
[img]http://img521.imageshack.us/img521/4424/28462705.png[/img]
[img]http://img265.imageshack.us/img265/8256/bubux.png[/img]
[img]http://img832.imageshack.us/img832/9386/bububu.png[/img]
[img]http://img839.imageshack.us/img839/7119/bubububu.png[/img]
[img]http://img834.imageshack.us/img834/1824/bububububbuubu.png[/img]
[img]http://img833.imageshack.us/img833/5828/bububububbuububu.png[/img]
[img]http://img24.imageshack.us/img24/6026/bububububbuubububu.png[/img]
[img]http://img585.imageshack.us/img585/7193/bububububuh.png[/img]




Greetz

ViSiON,SPK,SceneLovers,SiC,SANTi,3LT0N,YanKeeS,MAGNET,THC,T0XiC,LKRG,Feel-Free,FLAWL3SS,
WBZ,BHRG,26K,NOVA,D2U,Rapeseed,SAFC,goldadvance,KaN1vE,Unevano,Pinnz,Wayne
Mr Hive,and most P2P groups
Great Work Guys :D

LOOKING FOR ANYTHING YOU WANT TO LOOK AND SOUND BETTER

CM8@hushmail.com